<svg width="24" height="24" viewBox="0 0 24 24" fill="none" xmlns="http://www.w3.org/2000/svg">
<g clip-path="url(#clip0)">
<path d="M11.9184 19.3601H8.82666V16.6073H11.5816C14.1228 16.6073 16.5237 14.5411 16.5237 11.9999C16.5237 9.45865 14.1228 7.3946 11.5816 7.3946H8.82666V4.63965H11.9184C13.8705 4.63965 15.7426 5.4151 17.1229 6.7954C18.5032 8.17571 19.2786 10.0478 19.2786 11.9999C19.2786 13.9519 18.5032 15.824 17.1229 17.2043C15.7426 18.5846 13.8705 19.3601 11.9184 19.3601Z" fill="#3763A4"/>
<path d="M11.9184 24H2.87842V16.6074H5.63337V21.2472H11.9184C14.3461 21.2101 16.6619 20.2196 18.3656 18.4897C20.0693 16.7597 21.0243 14.4291 21.0243 12.0011C21.0243 9.57304 20.0693 7.24241 18.3656 5.51246C16.6619 3.78251 14.3461 2.79205 11.9184 2.75495H5.63337V7.39475H2.87842V0H11.9184C15.101 0 18.1532 1.26428 20.4036 3.51472C22.6541 5.76515 23.9184 8.8174 23.9184 12C23.9184 15.1826 22.6541 18.2348 20.4036 20.4853C18.1532 22.7357 15.101 24 11.9184 24Z" fill="#3763A4"/>
<path d="M7.07773 10.6221H1V13.377H7.07773V10.6221Z" fill="#3763A4"/>
<path d="M11.5816 6.50781H8.82666V18.0479H11.5816V6.50781Z" fill="#3763A4"/>
</g>
<defs>
<clipPath id="clip0">
<rect width="22.9183" height="24" fill="white" transform="translate(1)"/>
</clipPath>
</defs>
</svg>
