<svg width="51" height="12" viewBox="0 0 51 12" fill="none" xmlns="http://www.w3.org/2000/svg">
<g clip-path="url(#clip0)">
<path d="M5.47995 0.678711C7.2304 0.678711 8.54839 1.16225 9.43392 2.12933C10.3921 3.28192 10.8719 4.75757 10.7746 6.25278C10.8697 7.74583 10.3901 9.21876 9.43392 10.3701C8.54427 11.3454 7.22628 11.833 5.47995 11.833H0V0.678711H5.47995ZM4.91775 9.0244C5.19985 9.06206 5.48686 9.01948 5.74585 8.90156C6.00484 8.78364 6.2253 8.59515 6.38195 8.35772C6.66602 7.69406 6.79084 6.97323 6.74645 6.25278C6.79084 5.53234 6.66602 4.8115 6.38195 4.14784C6.2253 3.91042 6.00484 3.72195 5.74585 3.60403C5.48686 3.48611 5.19985 3.44353 4.91775 3.48119H3.9169V9.03674L4.91775 9.0244Z" fill="#3763A4"/>
<path d="M16.0259 3.21034C16.8786 3.19153 17.7241 3.36894 18.4971 3.72885C19.1816 4.05449 19.7553 4.57397 20.1467 5.22269C20.5687 5.94475 20.7826 6.76941 20.7645 7.6054C20.7808 8.43922 20.567 9.26143 20.1467 9.98194C19.7577 10.6357 19.1838 11.1598 18.4971 11.4881C17.7228 11.8436 16.8779 12.0188 16.0259 12.0005C15.1741 12.0179 14.3293 11.8428 13.5547 11.4881C12.8635 11.1618 12.285 10.6375 11.8928 9.98194C11.4724 9.26143 11.2587 8.43922 11.275 7.6054C11.2569 6.76941 11.4707 5.94475 11.8928 5.22269C12.2875 4.57215 12.8656 4.05249 13.5547 3.72885C14.3277 3.36894 15.1733 3.19153 16.0259 3.21034ZM16.0259 5.83379C15.868 5.83155 15.7138 5.88146 15.5873 5.97578C15.4387 6.11734 15.3409 6.30393 15.3093 6.50663C15.2382 6.8684 15.2071 7.23686 15.2166 7.6054C15.2065 7.97191 15.2376 8.33841 15.3093 8.698C15.3427 8.90013 15.4401 9.0862 15.5873 9.22886C15.7097 9.33218 15.8657 9.38709 16.0259 9.38318C16.1903 9.39018 16.3513 9.33508 16.4769 9.22886C16.6198 9.08388 16.7147 8.89859 16.7488 8.698C16.8204 8.33841 16.8515 7.97191 16.8414 7.6054C16.8509 7.23686 16.8198 6.8684 16.7488 6.50663C16.7162 6.30553 16.6211 6.11979 16.4769 5.97578C16.347 5.87883 16.188 5.82878 16.0259 5.83379Z" fill="#3763A4"/>
<path d="M25.7934 3.21034C26.6461 3.19153 27.4916 3.36894 28.2647 3.72885C28.9492 4.05449 29.5228 4.57397 29.9142 5.22269C30.3362 5.94475 30.5501 6.76941 30.532 7.6054C30.5486 8.43926 30.3348 9.26156 29.9142 9.98195C29.5252 10.6357 28.9513 11.1598 28.2647 11.4881C27.4902 11.843 26.6453 12.0182 25.7934 12.0005C24.9416 12.0177 24.0968 11.8426 23.3222 11.4881C22.6316 11.1633 22.0547 10.6385 21.6665 9.98195C21.2461 9.26144 21.0324 8.43922 21.0487 7.6054C21.0306 6.76941 21.2444 5.94475 21.6665 5.22269C22.0569 4.57092 22.6335 4.05068 23.3222 3.72885C24.0952 3.36894 24.9408 3.19153 25.7934 3.21034ZM25.7934 5.8338C25.6335 5.83065 25.4771 5.88058 25.3486 5.97578C25.2 6.11734 25.1023 6.30393 25.0706 6.50663C24.9995 6.8684 24.9685 7.23686 24.9779 7.6054C24.9678 7.97191 24.9989 8.33842 25.0706 8.698C25.104 8.90013 25.2014 9.08621 25.3486 9.22886C25.4729 9.33311 25.6312 9.38803 25.7934 9.38318C25.9563 9.39243 26.1162 9.33695 26.2382 9.22886C26.3811 9.08388 26.476 8.89859 26.5101 8.698C26.5818 8.33842 26.6129 7.97191 26.6028 7.6054C26.6122 7.23686 26.5811 6.8684 26.5101 6.50663C26.4776 6.30553 26.3824 6.11979 26.2382 5.97578C26.1107 5.87884 25.9536 5.8287 25.7934 5.8338Z" fill="#3763A4"/>
<path d="M34.1894 12C33.5634 12.0164 32.9479 11.8373 32.4286 11.4876C31.9234 11.1108 31.5408 10.5933 31.3289 9.99999C31.0647 9.24686 30.9391 8.45216 30.9582 7.65432C30.9386 6.83527 31.0684 6.01949 31.3413 5.24691C31.5552 4.64623 31.9394 4.12073 32.4472 3.73456C32.9639 3.37821 33.5803 3.19452 34.2079 3.20986C34.5644 3.18984 34.9208 3.25178 35.2496 3.3909C35.5784 3.53001 35.8709 3.74261 36.1046 4.01235C36.562 4.59811 36.8485 5.2988 36.9324 6.03704L36.5926 6.54319V0H40.4848V11.8333H36.9819L36.7471 8.41974L37.1857 8.9074C37.1296 9.46634 36.966 10.0092 36.7038 10.5062C36.4674 10.9561 36.1156 11.3353 35.6845 11.6049C35.2343 11.8772 34.7153 12.0143 34.1894 12ZM35.7648 9.27778C35.8467 9.27988 35.9282 9.26567 36.0046 9.23599C36.0809 9.20632 36.1506 9.16178 36.2096 9.10494C36.3472 8.9482 36.4429 8.75919 36.4876 8.55555C36.5636 8.24454 36.5989 7.925 36.5926 7.60492C36.5964 7.29819 36.5674 6.99195 36.5062 6.69136C36.4697 6.4843 36.3754 6.29173 36.2343 6.13578C36.1735 6.07363 36.1003 6.02502 36.0193 5.99311C35.9384 5.96119 35.8517 5.94671 35.7648 5.95061C35.643 5.95122 35.5232 5.9813 35.4156 6.03828C35.308 6.09525 35.2158 6.17743 35.147 6.27777C34.9449 6.68924 34.8615 7.14877 34.906 7.60492C34.8631 8.065 34.9464 8.5281 35.147 8.94444C35.2138 9.04582 35.3045 9.12923 35.4112 9.18735C35.5178 9.24548 35.6371 9.27654 35.7586 9.27778H35.7648Z" fill="#3763A4"/>
<path d="M46.1934 6.56186C46.2085 6.34235 46.1474 6.12435 46.0204 5.94458C45.9521 5.86769 45.8669 5.80762 45.7715 5.76907C45.6761 5.73052 45.5731 5.71454 45.4705 5.72237C45.2459 5.70735 45.0243 5.78042 44.8527 5.92606C44.66 6.1523 44.5626 6.44437 44.5809 6.74088L41.3003 6.26558C41.3279 5.82581 41.4531 5.39768 41.6668 5.01225C41.8805 4.62682 42.1774 4.29373 42.5359 4.03718C43.4824 3.42151 44.6031 3.12911 45.73 3.20384C46.5584 3.17668 47.3839 3.3152 48.158 3.61125C48.7372 3.83493 49.2334 4.23153 49.5789 4.74705C49.8948 5.25178 50.0579 5.83702 50.0485 6.43224V9.0557C50.0485 9.51866 50.2647 9.74705 50.7034 9.74705C50.8025 9.75068 50.9014 9.73388 50.9937 9.69768L50.8269 11.6915C50.354 11.9054 49.8384 12.0089 49.3195 11.994C48.838 12.0031 48.3588 11.9257 47.9047 11.7656C47.5228 11.634 47.1878 11.3937 46.9409 11.0742C46.6997 10.7249 46.5783 10.3069 46.5949 9.88285V9.71002H46.9656C46.9572 10.1314 46.8119 10.5387 46.5517 10.8705C46.2719 11.2262 45.9092 11.5081 45.4952 11.6915C45.0211 11.9016 44.5064 12.0049 43.9878 11.994C43.47 12.0071 42.955 11.9147 42.4742 11.7224C42.0899 11.5636 41.7625 11.2925 41.5351 10.9446C41.3158 10.5842 41.2044 10.1687 41.2138 9.74705C41.2064 9.46597 41.2575 9.18642 41.3639 8.92609C41.4702 8.66576 41.6295 8.43033 41.8316 8.23472C42.3111 7.80555 42.9062 7.52651 43.543 7.43224L46.4837 6.81495V8.18532L45.5756 8.40756C45.3782 8.43994 45.1976 8.53778 45.0628 8.68532C44.9608 8.82472 44.9086 8.99425 44.9145 9.1668C44.9102 9.32913 44.9702 9.48661 45.0813 9.60509C45.1444 9.66472 45.2194 9.71038 45.3014 9.7391C45.3834 9.76782 45.4705 9.77894 45.557 9.77175C45.6461 9.77417 45.7346 9.75733 45.8165 9.72237C45.9018 9.69225 45.9783 9.64132 46.0389 9.57421C46.1028 9.50255 46.1511 9.4185 46.181 9.3273C46.2178 9.22015 46.2345 9.10716 46.2304 8.99396L46.1934 6.56186Z" fill="#3763A4"/>
</g>
<defs>
<clipPath id="clip0">
<rect width="51" height="12" fill="white"/>
</clipPath>
</defs>
</svg>
