<svg width="24" height="24" viewBox="0 0 24 24" fill="none" xmlns="http://www.w3.org/2000/svg">
<g clip-path="url(#clip0)">
<path d="M11.6684 19.3601H8.57666V16.6073H11.3316C13.8728 16.6073 16.2737 14.5411 16.2737 11.9999C16.2737 9.45865 13.8728 7.3946 11.3316 7.3946H8.57666V4.63965H11.6684C13.6205 4.63965 15.4926 5.4151 16.8729 6.7954C18.2532 8.17571 19.0286 10.0478 19.0286 11.9999C19.0286 13.9519 18.2532 15.824 16.8729 17.2043C15.4926 18.5846 13.6205 19.3601 11.6684 19.3601Z" fill="#3763A4"/>
<path d="M11.6684 24H2.62842V16.6074H5.38337V21.2472H11.6684C14.0961 21.2101 16.4119 20.2196 18.1156 18.4897C19.8193 16.7597 20.7743 14.4291 20.7743 12.0011C20.7743 9.57304 19.8193 7.24241 18.1156 5.51246C16.4119 3.78251 14.0961 2.79205 11.6684 2.75495H5.38337V7.39475H2.62842V0H11.6684C14.851 0 17.9032 1.26428 20.1536 3.51472C22.4041 5.76515 23.6684 8.8174 23.6684 12C23.6684 15.1826 22.4041 18.2348 20.1536 20.4853C17.9032 22.7357 14.851 24 11.6684 24Z" fill="#3763A4"/>
<path d="M6.82773 10.6221H0.75V13.377H6.82773V10.6221Z" fill="#3763A4"/>
<path d="M11.3316 6.50781H8.57666V18.0479H11.3316V6.50781Z" fill="#3763A4"/>
</g>
<defs>
<clipPath id="clip0">
<rect width="22.9183" height="24" fill="white" transform="translate(0.75)"/>
</clipPath>
</defs>
</svg>
