<svg width="20" height="20" viewBox="0 0 20 20" fill="none" xmlns="http://www.w3.org/2000/svg">
<path d="M16.778 2.5H11.5554C11.1566 2.5 10.8334 2.82321 10.8334 3.22205C10.8334 3.62084 11.1566 3.94406 11.5554 3.94406H16.056V8.44468C16.056 8.84348 16.3792 9.1667 16.778 9.1667C17.1768 9.1667 17.5 8.84348 17.5 8.44468V3.22205C17.5 2.82321 17.1768 2.5 16.778 2.5Z" fill="#4D5560"/>
<path d="M7.78676 13.2236L7.78675 13.2236C7.64716 13.3632 7.46403 13.433 7.2814 13.433C7.09863 13.433 6.91549 13.3632 6.77608 13.2236C6.49682 12.9446 6.49681 12.4919 6.77605 12.2129L7.78676 13.2236ZM7.78676 13.2236L16.5572 4.45314C16.5572 4.45313 16.5572 4.45312 16.5572 4.45311C16.8365 4.1741 16.8365 3.72145 16.5572 3.44244C16.278 3.1632 15.8258 3.1632 15.5466 3.44243C15.5466 3.44243 15.5466 3.44244 15.5466 3.44244L6.77608 12.2129L7.78676 13.2236Z" fill="#4D5560" stroke="#4D5560" stroke-width="0.2"/>
<path d="M16.4029 10.3096C16.0559 10.3096 15.7747 10.5908 15.7747 10.9378V16.2435H3.75628V4.22503H9.06198C9.40892 4.22503 9.6901 3.94385 9.6901 3.59691C9.6901 3.24997 9.40892 2.96875 9.06198 2.96875H3.12816C2.78118 2.96875 2.5 3.24993 2.5 3.59691V16.8716C2.5 17.2186 2.78118 17.4997 3.12816 17.4997H16.4029C16.75 17.4997 17.031 17.2186 17.031 16.8716V10.9378C17.031 10.5908 16.7498 10.3096 16.4029 10.3096Z" fill="#4D5560"/>
</svg>
