<svg width="32" height="32" viewBox="0 0 32 32" fill="none" xmlns="http://www.w3.org/2000/svg">
<path fill-rule="evenodd" clip-rule="evenodd" d="M1.33337 15.9999C1.33337 7.89964 7.89976 1.33325 16 1.33325C24.1003 1.33325 30.6667 7.89964 30.6667 15.9999C30.6667 24.1002 24.1003 30.6666 16 30.6666C7.89976 30.6666 1.33337 24.1002 1.33337 15.9999ZM23.2343 10.9928C23.4609 11.5932 23.5812 12.2283 23.5897 12.8697C23.637 13.6766 23.6373 13.9404 23.6389 15.9826L23.639 16.0112C23.639 18.0803 23.6279 18.3387 23.5914 19.1535C23.5787 19.7879 23.4591 20.4129 23.236 21.0058C23.0392 21.512 22.739 21.9718 22.3544 22.3558C21.9698 22.7397 21.5092 23.0395 21.0022 23.2359C20.4086 23.4583 19.7815 23.5783 19.1476 23.5908C18.3374 23.6382 18.0718 23.6382 16.0001 23.6382C13.9283 23.6382 13.6695 23.6272 12.8525 23.5908C12.2174 23.5699 11.5905 23.441 10.9988 23.2096C10.4915 23.0136 10.0308 22.7141 9.64601 22.3303C9.26123 21.9464 8.96088 21.4867 8.76416 20.9804C8.54103 20.3867 8.42141 19.7616 8.40869 19.1281C8.36118 18.3183 8.36118 18.0541 8.36118 15.9858C8.36118 13.9175 8.37221 13.6591 8.40869 12.8435C8.42067 12.2109 8.54089 11.585 8.76416 10.9928C8.96055 10.4864 9.26067 10.0265 9.64533 9.64245C10.03 9.25844 10.4907 8.95881 10.998 8.76275C11.5913 8.54039 12.2181 8.42011 12.8517 8.40702C13.6619 8.36043 13.9275 8.36043 15.9992 8.36043C18.071 8.36043 18.3297 8.3706 19.1459 8.40702C19.7798 8.42001 20.4069 8.54029 21.0005 8.76275C21.5077 8.95895 21.9683 9.25862 22.3529 9.64261C22.7376 10.0266 23.0377 10.4865 23.2343 10.9928ZM12.072 15.9815C12.072 18.1447 13.8273 19.8971 15.9941 19.8971C17.0343 19.8971 18.0319 19.4846 18.7675 18.7503C19.503 18.016 19.9162 17.02 19.9162 15.9815C19.9162 14.9431 19.503 13.9471 18.7675 13.2128C18.0319 12.4785 17.0343 12.066 15.9941 12.066C13.8273 12.066 12.072 13.8184 12.072 15.9815ZM19.1578 11.9211C19.1578 12.4259 19.5658 12.8342 20.0723 12.8342C20.5771 12.8342 20.986 12.4259 20.986 11.9211C20.986 11.8013 20.9624 11.6826 20.9165 11.5719C20.8705 11.4612 20.8032 11.3606 20.7183 11.2758C20.6334 11.1911 20.5326 11.1238 20.4217 11.078C20.3108 11.0321 20.192 11.0085 20.0719 11.0085C19.9519 11.0085 19.833 11.0321 19.7221 11.078C19.6112 11.1238 19.5104 11.1911 19.4255 11.2758C19.3406 11.3606 19.2733 11.4612 19.2274 11.5719C19.1814 11.6826 19.1578 11.8013 19.1578 11.9211Z" fill="#636C7D"/>
</svg>
