<svg width="32" height="32" viewBox="0 0 32 32" fill="none" xmlns="http://www.w3.org/2000/svg">
<path d="M16 1.33325C7.89789 1.33325 1.33337 7.89777 1.33337 15.9999C1.33337 24.1021 7.89789 30.6666 16 30.6666C24.1022 30.6666 30.6667 24.1021 30.6667 15.9999C30.6667 7.89777 24.1022 1.33325 16 1.33325ZM23.2033 11.3811L20.7963 22.7241C20.6189 23.5284 20.1398 23.7236 19.4715 23.3451L15.8049 20.6424L14.0366 22.3456C13.8414 22.5408 13.6758 22.7064 13.2974 22.7064L13.5576 18.9746L20.3527 12.8359C20.6484 12.5757 20.2877 12.4279 19.8974 12.6881L11.4995 17.9752L7.88015 16.8456C7.09359 16.5972 7.07585 16.0591 8.04574 15.6806L22.1861 10.2279C22.8425 9.99132 23.4162 10.3876 23.2033 11.3811Z" fill="#636C7D"/>
</svg>
