<svg width="30" height="30" viewBox="0 0 30 30" fill="none" xmlns="http://www.w3.org/2000/svg">
<path d="M15 0.333252C6.90064 0.333252 0.333374 6.90051 0.333374 14.9999C0.333374 23.0993 6.90064 29.6666 15 29.6666C23.0994 29.6666 29.6667 23.0993 29.6667 14.9999C29.6667 6.90051 23.0994 0.333252 15 0.333252ZM22.0486 11.3889C22.0584 11.5428 22.0584 11.7032 22.0584 11.8603C22.0584 16.6663 18.3983 22.2023 11.7099 22.2023C9.64736 22.2023 7.73546 21.6032 6.12474 20.5719C6.41939 20.6047 6.70093 20.6178 7.00212 20.6178C8.7045 20.6178 10.2694 20.0416 11.5167 19.066C9.91909 19.0333 8.57683 17.9856 8.11849 16.5452C8.67831 16.627 9.18248 16.627 9.75867 16.4797C8.93605 16.3126 8.19665 15.8658 7.66611 15.2153C7.13556 14.5648 6.84657 13.7507 6.84825 12.9112V12.8654C7.3295 13.1371 7.89587 13.3041 8.48843 13.327C7.9903 12.995 7.58178 12.5452 7.29909 12.0176C7.01641 11.4899 6.8683 10.9006 6.8679 10.302C6.8679 9.62432 7.04468 9.00557 7.36224 8.46867C8.27532 9.59269 9.41469 10.512 10.7063 11.1668C11.998 11.8217 13.4129 12.1974 14.8593 12.2696C14.3453 9.79784 16.1917 7.79754 18.4114 7.79754C19.459 7.79754 20.4018 8.23623 21.0664 8.94337C21.8881 8.7895 22.6738 8.48176 23.3744 8.06926C23.1027 8.91063 22.5331 9.62105 21.7768 10.0696C22.5102 9.99099 23.2173 9.78801 23.8721 9.50319C23.3777 10.23 22.759 10.8749 22.0486 11.3889Z" fill="#636C7D"/>
</svg>
