<svg width="30" height="30" viewBox="0 0 30 30" fill="none" xmlns="http://www.w3.org/2000/svg">
<path d="M17.4491 14.7448L14.0177 13.1437C13.7182 13.0046 13.4723 13.1605 13.4723 13.492V16.5078C13.4723 16.8394 13.7182 16.9952 14.0177 16.8562L17.4475 15.2551C17.7485 15.1145 17.7485 14.8853 17.4491 14.7448ZM15 0.333252C6.89976 0.333252 0.333374 6.89964 0.333374 14.9999C0.333374 23.1002 6.89976 29.6666 15 29.6666C23.1003 29.6666 29.6667 23.1002 29.6667 14.9999C29.6667 6.89964 23.1003 0.333252 15 0.333252ZM15 20.9583C7.49254 20.9583 7.36115 20.2814 7.36115 14.9999C7.36115 9.71839 7.49254 9.04158 15 9.04158C22.5075 9.04158 22.6389 9.71839 22.6389 14.9999C22.6389 20.2814 22.5075 20.9583 15 20.9583Z" fill="#636C7D"/>
</svg>
